<svg width="45" height="16" viewBox="0 0 45 16" fill="none" xmlns="http://www.w3.org/2000/svg">
<path fill-rule="evenodd" clip-rule="evenodd" d="M0.719849 8.50044L40.5997 8.52073L40.1592 8.87739C39.5224 9.3931 38.4537 10.7938 38.071 11.6143C37.5142 12.8083 37.1414 14.355 37.1414 15.471V16H37.5145H37.8875L37.9308 15.3932C38.1937 11.7066 40.4218 8.88936 43.3335 8.56181C43.7254 8.51774 44.0819 8.48136 44.1256 8.48103C44.1801 8.48055 44.2052 8.33153 44.2052 8.0077V7.53501L43.564 7.43628C42.1489 7.21837 40.9641 6.47295 40.0007 5.19444C39.0204 3.89321 38.4889 2.43674 38.3673 0.718041L38.3187 0.030757L37.952 0.0065012C37.656 -0.0131474 37.5775 0.00835896 37.5444 0.117921C37.4844 0.316424 37.6842 1.96663 37.8421 2.57775C38.3211 4.43131 39.3055 6.07166 40.5665 7.11754L41.0396 7.51002L0.939842 7.51002V7.92759L0.939842 8.50055L0.719849 8.50044Z" fill="#121212"/>
</svg>
