<svg width="136" height="136" viewBox="0 0 136 136" fill="none" xmlns="http://www.w3.org/2000/svg">
<path d="M47.5848 60.5798C46.8488 60.5798 46.2968 60.4518 45.9288 60.1958C45.5608 59.9238 45.2328 59.4598 44.9448 58.8038L41.1048 49.5398H45.4248L48.0408 56.5718C48.1208 56.8118 48.2168 56.9798 48.3288 57.0758C48.4408 57.1718 48.5608 57.2198 48.6888 57.2198H48.8808L51.8328 49.5398H54.7608L50.1048 60.5798H47.5848ZM56.3879 60.5798C56.3879 58.9478 56.3879 57.3158 56.3879 55.6838C56.3879 54.0518 56.3879 52.4198 56.3879 50.7878C56.3879 50.5158 56.4039 50.2918 56.4359 50.1158C56.4839 49.9238 56.5959 49.7798 56.7719 49.6838C56.9639 49.5878 57.2679 49.5398 57.6839 49.5398H60.3239V60.5798H56.3879ZM63.1379 60.5798V50.7878C63.1379 50.2758 63.2259 49.9398 63.4019 49.7798C63.5779 49.6198 63.9219 49.5398 64.4339 49.5398H75.5219V51.6038H67.0739V53.9078H74.7539V55.9478H67.0739V58.5158H75.5219V60.5798H63.1379ZM80.8611 60.5798C80.3811 60.5798 79.9811 60.4998 79.6611 60.3398C79.3411 60.1798 79.0851 59.9558 78.8931 59.6678C78.7011 59.3638 78.5731 59.0118 78.5091 58.6118L76.9731 49.5398L80.5971 49.5638L81.7731 56.7158C81.8211 56.9718 81.8771 57.1558 81.9411 57.2678C82.0211 57.3638 82.1571 57.4118 82.3491 57.4118H82.7091L84.4851 49.5398H88.2531L90.2691 57.4118H90.6771C90.8211 57.4118 90.9251 57.3718 90.9891 57.2918C91.0531 57.1958 91.0931 57.0678 91.1091 56.9078L91.9731 49.5398H94.6851L93.3891 58.6598C93.3411 59.1238 93.2051 59.4998 92.9811 59.7878C92.7571 60.0758 92.4451 60.2838 92.0451 60.4118C91.6611 60.5238 91.1651 60.5798 90.5571 60.5798H87.8691L86.4291 54.6758L86.1651 53.4758L85.9491 54.6758L84.6771 60.5798H80.8611ZM37.7551 84.5798V74.7638C37.7551 74.2198 37.8511 73.8838 38.0431 73.7558C38.2351 73.6118 38.6351 73.5398 39.2431 73.5398H42.2431L45.0511 79.8038L45.0991 80.0438L45.1471 80.0198L45.1951 79.7798L47.9071 73.5398H51.0991C51.6751 73.5398 52.0431 73.6198 52.2031 73.7798C52.3791 73.9398 52.4671 74.2678 52.4671 74.7638V83.3558C52.4671 83.7558 52.4271 84.0438 52.3471 84.2198C52.2671 84.3798 52.1231 84.4838 51.9151 84.5318C51.7071 84.5638 51.4031 84.5798 51.0031 84.5798H48.5311V77.7638L48.3631 78.4358L45.6991 84.5798H43.3231L40.6831 78.5078L40.5391 77.8358V84.5798H37.7551ZM61.6954 84.7478C60.4154 84.7478 59.3274 84.6598 58.4314 84.4838C57.5354 84.3078 56.7994 84.0118 56.2234 83.5958C55.6634 83.1638 55.2474 82.5798 54.9754 81.8438C54.7194 81.1078 54.5914 80.1798 54.5914 79.0598C54.5914 77.9078 54.7274 76.9718 54.9994 76.2518C55.2714 75.5158 55.6954 74.9398 56.2714 74.5238C56.8634 74.0918 57.6074 73.7878 58.5034 73.6118C59.4154 73.4358 60.5034 73.3478 61.7674 73.3478C63.0314 73.3478 64.1114 73.4358 65.0074 73.6118C65.9034 73.7878 66.6314 74.0918 67.1914 74.5238C67.7674 74.9398 68.1834 75.5158 68.4394 76.2518C68.7114 76.9878 68.8474 77.9238 68.8474 79.0598C68.8474 80.1958 68.7114 81.1318 68.4394 81.8678C68.1674 82.6038 67.7434 83.1878 67.1674 83.6198C66.5914 84.0358 65.8474 84.3318 64.9354 84.5078C64.0394 84.6678 62.9594 84.7478 61.6954 84.7478ZM61.7194 82.7078C62.2474 82.7078 62.7034 82.6598 63.0874 82.5638C63.4874 82.4518 63.8074 82.2598 64.0474 81.9878C64.3034 81.7158 64.4874 81.3478 64.5994 80.8838C64.7274 80.4038 64.7914 79.7958 64.7914 79.0598C64.7914 78.3078 64.7274 77.6998 64.5994 77.2358C64.4874 76.7558 64.3034 76.3878 64.0474 76.1318C63.8074 75.8598 63.4874 75.6758 63.0874 75.5798C62.7034 75.4678 62.2474 75.4118 61.7194 75.4118C61.1754 75.4118 60.7034 75.4678 60.3034 75.5798C59.9194 75.6758 59.6074 75.8598 59.3674 76.1318C59.1274 76.3878 58.9434 76.7558 58.8154 77.2358C58.6874 77.6998 58.6234 78.3078 58.6234 79.0598C58.6234 79.7958 58.6874 80.4038 58.8154 80.8838C58.9434 81.3478 59.1274 81.7158 59.3674 81.9878C59.6074 82.2598 59.9194 82.4518 60.3034 82.5638C60.7034 82.6598 61.1754 82.7078 61.7194 82.7078ZM77.9494 80.8598C77.9494 80.8598 77.7894 80.8598 77.4694 80.8598C77.1654 80.8598 76.7734 80.8678 76.2934 80.8838C75.8134 80.8838 75.3174 80.8838 74.8054 80.8838V84.5798H70.8694V75.0038C70.8694 74.5398 70.9734 74.1798 71.1814 73.9238C71.3894 73.6678 71.8134 73.5398 72.4534 73.5398C72.6934 73.5398 73.0534 73.5398 73.5334 73.5398C74.0134 73.5238 74.5654 73.5158 75.1894 73.5158C75.8134 73.5158 76.4534 73.5158 77.1094 73.5158C77.7814 73.4998 78.4214 73.4998 79.0294 73.5158C79.6374 73.5158 80.1654 73.5238 80.6134 73.5398C81.0774 73.5398 81.4134 73.5478 81.6214 73.5638C82.4854 73.6438 83.1334 73.9078 83.5654 74.3558C83.9974 74.7878 84.2134 75.4998 84.2134 76.4918C84.2134 77.3878 84.1414 78.0438 83.9974 78.4598C83.8694 78.8598 83.6534 79.1718 83.3494 79.3958C83.2374 79.4758 83.0854 79.5398 82.8934 79.5878C82.7014 79.6358 82.4854 79.6598 82.2454 79.6598V79.7558C82.3574 79.7558 82.4774 79.7558 82.6054 79.7558C82.7494 79.7558 82.8694 79.7638 82.9654 79.7798C83.5734 79.8918 83.9334 80.1238 84.0454 80.4758C84.1734 80.8278 84.2374 81.1958 84.2374 81.5798V83.6918C84.2374 83.9958 84.2694 84.2198 84.3334 84.3638C84.3974 84.4918 84.4374 84.5638 84.4534 84.5798H81.5254C81.1094 84.5798 80.7814 84.5158 80.5414 84.3878C80.3174 84.2598 80.2054 83.9878 80.2054 83.5718V81.9878C80.2054 81.4918 80.0934 81.1798 79.8694 81.0518C79.6614 80.9238 79.2854 80.8598 78.7414 80.8598H77.9494ZM74.8054 78.9878C74.9814 78.9878 75.2454 78.9958 75.5974 79.0118C75.9654 79.0118 76.3654 79.0118 76.7974 79.0118C77.2294 79.0118 77.6214 79.0118 77.9734 79.0118C78.3414 79.0118 78.6054 79.0118 78.7654 79.0118C79.1494 79.0118 79.4854 78.8918 79.7734 78.6518C80.0774 78.3958 80.2294 77.9238 80.2294 77.2358C80.2294 76.7558 80.1414 76.3798 79.9654 76.1078C79.8054 75.8358 79.5334 75.6838 79.1494 75.6518C78.9254 75.6038 78.6214 75.5798 78.2374 75.5798C77.8694 75.5798 77.4774 75.5798 77.0614 75.5798C76.6614 75.5798 76.2934 75.5878 75.9574 75.6038C75.6214 75.6038 75.3734 75.6038 75.2134 75.6038C75.1814 75.6038 75.1014 75.6278 74.9734 75.6758C74.8614 75.7238 74.8054 75.8438 74.8054 76.0358V78.9878ZM86.6926 84.5798V74.7878C86.6926 74.2758 86.7806 73.9398 86.9566 73.7798C87.1326 73.6198 87.4766 73.5398 87.9886 73.5398H99.0766V75.6038H90.6286V77.9078H98.3086V79.9478H90.6286V82.5158H99.0766V84.5798H86.6926Z" fill="#313131"/>
<circle opacity="0.7" cx="68.0975" cy="67.8699" r="66.3028" stroke="#313131" stroke-width="2" stroke-dasharray="7 7"/>
</svg>
