<svg width="29" height="16" viewBox="0 0 29 16" fill="none" xmlns="http://www.w3.org/2000/svg">
<path fill-rule="evenodd" clip-rule="evenodd" d="M0 8.50044L24.2441 8.52073L23.6631 8.87739C22.8231 9.3931 21.4134 10.7938 20.9087 11.6143C20.1742 12.8083 19.6825 14.355 19.6825 15.471V16H20.1745H20.6666L20.7237 15.3932C21.0705 11.7066 24.0095 8.88936 27.8502 8.56181C28.3672 8.51774 28.8374 8.48136 28.8951 8.48103C28.9669 8.48055 29 8.33153 29 8.0077V7.53501L28.1542 7.43628C26.2876 7.21837 24.7248 6.47295 23.4541 5.19444C22.1609 3.89321 21.4598 2.43673 21.2995 0.71804L21.2354 0.030755L20.7517 0.00649929C20.3612 -0.0131493 20.2576 0.008358 20.214 0.117919C20.1349 0.316422 20.3984 1.96663 20.6067 2.57775C21.2386 4.43131 22.537 6.07166 24.2003 7.11754L24.8245 7.51002L0 7.51002L0 8L0 8.50044Z" fill="#121212"/>
</svg>
